<svg id="arrow-left-white" width="28" height="20" viewBox="0 0 28 20" fill="none" xmlns="http://www.w3.org/2000/svg">
<path d="M23 11C23.5523 11 24 10.5523 24 10C24 9.44772 23.5523 9 23 9V11ZM4.29289 9.29289C3.90237 9.68342 3.90237 10.3166 4.29289 10.7071L10.6569 17.0711C11.0474 17.4616 11.6805 17.4616 12.0711 17.0711C12.4616 16.6805 12.4616 16.0474 12.0711 15.6569L6.41421 10L12.0711 4.34315C12.4616 3.95262 12.4616 3.31946 12.0711 2.92893C11.6805 2.53841 11.0474 2.53841 10.6569 2.92893L4.29289 9.29289ZM23 9L5 9V11L23 11V9Z" fill="white"/>
</svg>
