<svg id="arrow-green" width="28" height="20" viewBox="0 0 28 20" fill="none" xmlns="http://www.w3.org/2000/svg">
   <path d="M5 11C4.44772 11 4 10.5523 4 10C4 9.44772 4.44772 9 5 9V11ZM23.7071 9.29289C24.0976 9.68342 24.0976 10.3166 23.7071 10.7071L17.3431 17.0711C16.9526 17.4616 16.3195 17.4616 15.9289 17.0711C15.5384 16.6805 15.5384 16.0474 15.9289 15.6569L21.5858 10L15.9289 4.34315C15.5384 3.95262 15.5384 3.31946 15.9289 2.92893C16.3195 2.53841 16.9526 2.53841 17.3431 2.92893L23.7071 9.29289ZM5 9L23 9V11L5 11V9Z" fill="#50A055"/>
</svg>
