<svg id="cart" width="26" height="27" viewBox="0 0 26 27" fill="none" xmlns="http://www.w3.org/2000/svg">
<path d="M23.1563 21.0938C21.5881 21.0938 20.3126 22.4187 20.3126 24.0469C20.3126 25.6755 21.5884 27 23.1563 27C24.7245 27 25.9999 25.6752 25.9999 24.0469C25.9999 22.4184 24.7245 21.0938 23.1563 21.0938ZM23.1563 25.3126C22.4861 25.3126 21.9375 24.7432 21.9375 24.0469C21.9375 23.351 22.4858 22.7812 23.1563 22.7812C23.8265 22.7812 24.3751 23.3506 24.3751 24.0469C24.3751 24.7429 23.8265 25.3126 23.1563 25.3126ZM9.34386 21.0938C7.77567 21.0938 6.5002 22.4187 6.5002 24.0469C6.5002 25.6755 7.77596 27 9.34386 27C10.912 27 12.1875 25.6752 12.1875 24.0469C12.1875 22.4184 10.9118 21.0938 9.34386 21.0938ZM9.34386 25.3126C8.67368 25.3126 8.12505 24.7432 8.12505 24.0469C8.12505 23.351 8.67338 22.7812 9.34386 22.7812C10.014 22.7812 10.5627 23.3506 10.5627 24.0469C10.5624 24.7429 10.0141 25.3126 9.34386 25.3126ZM26 12.6563V5.06246C26 4.59837 25.6384 4.21877 25.1876 4.21877H6.97102L6.49154 0.725692C6.43487 0.307813 6.09368 0 5.68732 0H0.812423C0.361575 0 0 0.379623 0 0.843682C0 1.30774 0.36159 1.68736 0.812423 1.68736H4.98458L7.32043 18.6808C7.37739 19.0987 7.71858 19.4065 8.12495 19.4065H25.1873C25.6382 19.4065 25.9998 19.0269 25.9998 18.5628C25.9998 18.0987 25.6382 17.7191 25.1873 17.7191H8.8279L8.59638 16.0318H22.7498C24.5415 16.0318 25.9998 14.5171 25.9998 12.6566L26 12.6563ZM7.20308 5.90606H24.375V12.6563C24.375 13.5885 23.6479 14.3436 22.7502 14.3436H8.36466L7.20308 5.90606Z" fill="white"/>
</svg>
