<svg id="phone-blue" width="16" height="16" viewBox="0 0 16 16" fill="none" xmlns="http://www.w3.org/2000/svg">
<path d="M15.9146 12.6134C15.1717 11.0624 13.9046 10.0505 12.0944 9.59885C11.8225 9.53101 11.5336 9.59841 11.3166 9.77573L9.81323 11.0041C9.51968 11.244 9.10479 11.2749 8.78215 11.0758C7.19186 10.0949 5.90515 8.80814 4.92416 7.21785C4.72514 6.89522 4.75604 6.48032 4.99589 6.18678L6.22428 4.6834C6.4016 4.46638 6.46899 4.17748 6.40114 3.90556C5.94951 2.09543 4.93758 0.828301 3.38659 0.0854086C3.13637 -0.0344481 2.8412 -0.0277533 2.59648 0.102954C1.81655 0.51948 1.07038 0.99078 0.363457 1.52076C0.0927761 1.72369 -0.0438016 2.05923 0.0125243 2.39281C0.520706 5.40256 2.14695 8.56762 4.78967 11.2103C7.43238 13.8531 10.5974 15.4793 13.6072 15.9875C13.9408 16.0438 14.2763 15.9072 14.4792 15.6365C15.0092 14.9296 15.4805 14.1835 15.8971 13.4035C16.0277 13.1588 16.0345 12.8636 15.9146 12.6134Z" fill="#2566B0"/>
</svg>
