<svg id="scales-green" width="26" height="27" viewBox="0 0 26 27" fill="none" xmlns="http://www.w3.org/2000/svg">
<path d="M25.2877 14.8222L22.011 4.4884H22.0466C22.5096 4.4884 22.8658 4.14046 22.8658 3.68814C22.8658 3.23582 22.5096 2.88789 22.0466 2.88789H13.8192V0.800258C13.8192 0.347938 13.463 0 13 0C12.537 0 12.1808 0.347938 12.1808 0.800258V2.88789H3.91781C3.45479 2.88789 3.09863 3.23582 3.09863 3.68814C3.09863 4.14046 3.45479 4.4884 3.91781 4.4884H3.95342L0.676712 14.8222C0.284931 14.8918 0 15.2049 0 15.5876C0 18.3015 2.24384 20.4936 5.02192 20.4936C7.8 20.4936 10.0438 18.3015 10.0438 15.5876C10.0438 15.2049 9.7589 14.857 9.36712 14.8222L6.09041 4.4884H12.1808V21.3982C9.83014 21.7809 8.0137 23.799 8.0137 26.1997C8.0137 26.6521 8.36986 27 8.83288 27H17.2384C17.7014 27 18.0575 26.6521 18.0575 26.1997C18.0575 26.1649 18.0575 26.0954 18.0575 26.0606C17.9863 23.6946 16.1699 21.7461 13.8192 21.3634V4.4884H19.9096L16.6329 14.8222C16.2411 14.8918 15.9562 15.2049 15.9562 15.5876C15.9562 18.3015 18.2 20.4936 20.9781 20.4936C23.7562 20.4936 26 18.3015 26 15.5876C25.9644 15.2049 25.6795 14.8918 25.2877 14.8222ZM5.05753 18.893C3.49041 18.893 2.13699 17.8144 1.78082 16.3879H8.33425C7.94247 17.8492 6.62466 18.893 5.05753 18.893ZM5.09315 14.7874H2.42192L5.05753 6.50644L7.65753 14.7874H5.09315ZM16.3123 25.3995H9.75891C10.1151 23.9729 11.4685 22.8943 13.0356 22.8943C14.6384 22.8943 15.9562 23.9729 16.3123 25.3995ZM20.9425 6.50644L23.5781 14.7874H21.0137H18.3425L20.9425 6.50644ZM20.9425 18.893C19.3753 18.893 18.0219 17.8144 17.6658 16.3879H24.2192C23.863 17.8492 22.5452 18.893 20.9425 18.893Z" fill="#50A055"/>
</svg>
