<svg id="search" width="26" height="26" viewBox="0 0 26 26" fill="none" xmlns="http://www.w3.org/2000/svg">
<path d="M3.01724 3.04105C4.97268 1.08005 7.57482 0 10.3448 0C13.1023 0 15.6962 1.07239 17.6487 3.01871C21.5015 6.85999 21.6866 13.0078 18.2013 17.0734L25.7662 24.6385C26.0779 24.9503 26.0779 25.455 25.7662 25.7664C25.6105 25.9221 25.4067 26 25.2021 26C24.9983 26 24.7941 25.9221 24.6381 25.7664L17.0741 18.2019C15.2004 19.8123 12.8416 20.6929 10.3448 20.6929C7.58727 20.6929 4.99437 19.6205 3.04404 17.6736C1.08605 15.7237 0.00512314 13.1275 1.71661e-05 10.3631C-0.0050869 7.59864 1.06627 4.9979 3.01724 3.04105ZM4.17059 16.5434C5.82006 18.1905 8.01287 19.0973 10.3448 19.0973C12.6879 19.0973 14.8893 18.1831 16.5432 16.5236C19.9481 13.1061 19.9388 7.55492 16.5228 4.14854C14.8708 2.50214 12.6773 1.59535 10.3451 1.59535C8.00203 1.59535 5.80124 2.50884 4.1473 4.168C2.4972 5.8227 1.5911 8.02172 1.59557 10.3599C1.60004 12.698 2.51379 14.8938 4.17059 16.5434Z" fill="#50A055"/>
</svg>
