<svg width="84" height="20" viewBox="0 0 84 20" fill="none" xmlns="http://www.w3.org/2000/svg">
<path d="M9.04894 2.92705C9.3483 2.00574 10.6517 2.00574 10.9511 2.92705L12.0206 6.21885C12.1545 6.63087 12.5385 6.90983 12.9717 6.90983H16.4329C17.4016 6.90983 17.8044 8.14945 17.0207 8.71885L14.2205 10.7533C13.87 11.0079 13.7234 11.4593 13.8572 11.8713L14.9268 15.1631C15.2261 16.0844 14.1717 16.8506 13.388 16.2812L10.5878 14.2467C10.2373 13.9921 9.7627 13.9921 9.41221 14.2467L6.61204 16.2812C5.82833 16.8506 4.77385 16.0844 5.0732 15.1631L6.14277 11.8713C6.27665 11.4593 6.12999 11.0079 5.7795 10.7533L2.97933 8.71885C2.19562 8.14945 2.59839 6.90983 3.56712 6.90983H7.02832C7.46154 6.90983 7.8455 6.63087 7.97937 6.21885L9.04894 2.92705Z" fill="#FFC803"/>
<path d="M25.0489 2.92705C25.3483 2.00574 26.6517 2.00574 26.9511 2.92705L28.0206 6.21885C28.1545 6.63087 28.5385 6.90983 28.9717 6.90983H32.4329C33.4016 6.90983 33.8044 8.14945 33.0207 8.71885L30.2205 10.7533C29.87 11.0079 29.7234 11.4593 29.8572 11.8713L30.9268 15.1631C31.2261 16.0844 30.1717 16.8506 29.388 16.2812L26.5878 14.2467C26.2373 13.9921 25.7627 13.9921 25.4122 14.2467L22.612 16.2812C21.8283 16.8506 20.7739 16.0844 21.0732 15.1631L22.1428 11.8713C22.2766 11.4593 22.13 11.0079 21.7795 10.7533L18.9793 8.71885C18.1956 8.14945 18.5984 6.90983 19.5671 6.90983H23.0283C23.4615 6.90983 23.8455 6.63087 23.9794 6.21885L25.0489 2.92705Z" fill="#FFC803"/>
<path d="M41.0489 2.92705C41.3483 2.00574 42.6517 2.00574 42.9511 2.92705L44.0206 6.21885C44.1545 6.63087 44.5385 6.90983 44.9717 6.90983H48.4329C49.4016 6.90983 49.8044 8.14945 49.0207 8.71885L46.2205 10.7533C45.87 11.0079 45.7234 11.4593 45.8572 11.8713L46.9268 15.1631C47.2261 16.0844 46.1717 16.8506 45.388 16.2812L42.5878 14.2467C42.2373 13.9921 41.7627 13.9921 41.4122 14.2467L38.612 16.2812C37.8283 16.8506 36.7739 16.0844 37.0732 15.1631L38.1428 11.8713C38.2766 11.4593 38.13 11.0079 37.7795 10.7533L34.9793 8.71885C34.1956 8.14945 34.5984 6.90983 35.5671 6.90983H39.0283C39.4615 6.90983 39.8455 6.63087 39.9794 6.21885L41.0489 2.92705Z" fill="#FFC803"/>
<path d="M57.0489 2.92705C57.3483 2.00574 58.6517 2.00574 58.9511 2.92705L60.0206 6.21885C60.1545 6.63087 60.5385 6.90983 60.9717 6.90983H64.4329C65.4016 6.90983 65.8044 8.14945 65.0207 8.71885L62.2205 10.7533C61.87 11.0079 61.7234 11.4593 61.8572 11.8713L62.9268 15.1631C63.2261 16.0844 62.1717 16.8506 61.388 16.2812L58.5878 14.2467C58.2373 13.9921 57.7627 13.9921 57.4122 14.2467L54.612 16.2812C53.8283 16.8506 52.7739 16.0844 53.0732 15.1631L54.1428 11.8713C54.2766 11.4593 54.13 11.0079 53.7795 10.7533L50.9793 8.71885C50.1956 8.14945 50.5984 6.90983 51.5671 6.90983H55.0283C55.4615 6.90983 55.8455 6.63087 55.9794 6.21885L57.0489 2.92705Z" fill="#FFC803"/>
<path d="M73.0489 2.92705C73.3483 2.00574 74.6517 2.00574 74.9511 2.92705L76.0206 6.21885C76.1545 6.63087 76.5385 6.90983 76.9717 6.90983H80.4329C81.4016 6.90983 81.8044 8.14945 81.0207 8.71885L78.2205 10.7533C77.87 11.0079 77.7234 11.4593 77.8572 11.8713L78.9268 15.1631C79.2261 16.0844 78.1717 16.8506 77.388 16.2812L74.5878 14.2467C74.2373 13.9921 73.7627 13.9921 73.4122 14.2467L70.612 16.2812C69.8283 16.8506 68.7739 16.0844 69.0732 15.1631L70.1428 11.8713C70.2766 11.4593 70.13 11.0079 69.7795 10.7533L66.9793 8.71885C66.1956 8.14945 66.5984 6.90983 67.5671 6.90983H71.0283C71.4615 6.90983 71.8455 6.63087 71.9794 6.21885L73.0489 2.92705Z" fill="#ECECEC"/>
</svg>
